<svg xmlns="http://www.w3.org/2000/svg" viewBox="0 0 1947.8 2498" enable-background="new 0 0 1947.8 2498"><style type="text/css">.st0{fill:#34201A;} .st1{fill:#2E2721;} .st2{fill:#312721;} .st3{fill:#46332A;} .st4{fill:#61493C;} .st5{fill:#554539;} .st6{fill:#735E4E;} .st7{fill:#6F594C;} .st8{fill:#6E4B3A;} .st9{fill:#57453D;} .st10{fill:#785F53;} .st11{fill:#514139;} .st12{fill:#352C27;} .st13{fill:#473A31;} .st14{fill:#5C3E31;} .st15{fill:#3A2A24;} .st16{fill:#3C322D;} .st17{fill:#222121;} .st18{fill:#443834;} .st19{fill:#2B282C;} .st20{fill:#201E21;} .st21{fill:#1B2129;} .st22{fill:#1C1F22;} .st23{fill:#181B20;} .st24{fill:#222325;} .st25{fill:#252422;} .st26{fill:#262221;} .st27{fill:#2A1A13;} .st28{fill:#282120;} .st29{fill:#191B1E;} .st30{fill:#9D8168;} .st31{fill:#6C514E;} .st32{fill:#66504C;} .st33{fill:#5D433B;} .st34{fill:#77483E;} .st35{fill:#6D463D;} .st36{fill:#794C41;} .st37{fill:#754D40;} .st38{fill:#573D3D;} .st39{fill:#704C42;} .st40{fill:#895749;} .st41{fill:#A77455;} .st42{fill:#9D654C;} .st43{fill:#855544;} .st44{fill:#A1674C;} .st45{fill:#905B47;} .st46{fill:#B07659;} .st47{fill:#CC8E67;} .st48{fill:#E3B184;} .st49{fill:#C28A61;} .st50{fill:#DCA97E;} .st51{fill:#E3B48A;} .st52{fill:#784734;} .st53{fill:#CA946A;} .st54{fill:#FFD9B5;} .st55{fill:#FFDCB8;} .st56{fill:#ECBD8F;} .st57{fill:#D2A981;} .st58{fill:#FCD2A9;} .st59{fill:#432A27;} .st60{fill:#71493F;} .st61{fill:#342523;} .st62{fill:#985D43;} .st63{fill:#5F2B20;} .st64{fill:#592B1D;} .st65{fill:#7C4431;} .st66{fill:#9A422E;} .st67{fill:#3F3228;} .st68{fill:#652C21;} .st69{fill:#61281C;} .st70{fill:#814632;} .st71{fill:#763D2C;} .st72{fill:#5D3730;} .st73{fill:#56322C;} .st74{fill:#623A33;} .st75{fill:#774233;} .st76{fill:#975E4C;} .st77{fill:#9D573F;} .st78{fill:#A35538;} .st79{fill:#D2926B;} .st80{fill:#F5E0C1;} .st81{fill:#F9BF97;} .st82{fill:#FFD0AE;} .st83{fill:#DB8D67;} .st84{fill:#FFECCB;} .st85{fill:#FFD1AA;} .st86{fill:#C98663;} .st87{fill:#93503A;} .st88{fill:#6C3830;} .st89{fill:#7E594F;} .st90{fill:#422C21;} .st91{fill:#3A241D;} .st92{fill:#5A3A34;} .st93{fill:#55281D;} .st94{fill:#BC5937;} .st95{fill:#BD6746;} .st96{fill:#DC8C67;} .st97{fill:#FBCCA8;} .st98{fill:#FFDAB6;} .st99{fill:#FDC59C;} .st100{fill:#FFDEB7;} .st101{fill:#E19F70;} .st102{fill:#F2B48F;} .st103{fill:#E8BA90;} .st104{fill:#D05332;} .st105{fill:#FFD1A6;} .st106{fill:#F2AB81;} .st107{fill:#FCC296;} .st108{fill:#BF5037;} .st109{fill:#BA7E56;} .st110{fill:#EEC095;} .st111{fill:#C4774C;} .st112{fill:#C1704C;} .st113{fill:#C15538;} .st114{fill:#C85B40;} .st115{fill:#F2B78F;} .st116{fill:#C47A5E;} .st117{fill:#D99C6C;} .st118{fill:#D09A6D;} .st119{fill:#F6C598;} .st120{fill:#FFD3AA;} .st121{fill:#F6BD93;} .st122{fill:#FAD2AD;} .st123{fill:#EFC096;} .st124{fill:#E59764;} .st125{fill:#C04830;} .st126{fill:#A83020;} .st127{fill:#BA2C1F;} .st128{fill:#FED6B0;} .st129{fill:#824A3A;} .st130{fill:#7E4F44;} .st131{fill:#76473D;} .st132{fill:#71544A;} .st133{fill:#753930;} .st134{fill:#735148;} .st135{fill:#793833;} .st136{fill:#723930;} .st137{fill:#7A453A;} .st138{fill:#5D2A21;} .st139{fill:#DCA76B;} .st140{fill:#C2864C;} .st141{fill:#DEAE7A;} .st142{fill:#C58356;} .st143{fill:#6F3D28;} .st144{fill:#794533;} .st145{fill:#714231;} .st146{fill:#784532;} .st147{fill:#E1AE71;} .st148{fill:#82482C;} .st149{fill:#D39761;} .st150{fill:#5E301B;} .st151{fill:#774939;} .st152{fill:#6D2D1F;} .st153{fill:#E1A47C;} .st154{fill:#DD9D7F;} .st155{fill:#6F3921;} .st156{fill:#6D3926;} .st157{fill:#763328;} .st158{fill:#B56454;} .st159{fill:#72352E;} .st160{fill:#6E3924;} .st161{fill:#6D422E;} .st162{fill:#6D4029;} .st163{fill:#72452C;} .st164{fill:#6D402B;} .st165{fill:#774730;} .st166{fill:#593528;} .st167{fill:#69312E;} .st168{fill:#653228;} .st169{fill:#652D24;} .st170{fill:#6F362B;} .st171{fill:#7B3D30;} .st172{fill:#602E23;} .st173{fill:#5E3223;} .st174{fill:#432C1F;} .st175{fill:#734229;} .st176{fill:#734E3B;} .st177{fill:#815642;} .st178{fill:#F4CAA0;} .st179{fill:#F4CA9A;} .st180{fill:#925A42;} .st181{fill:#7F4631;} .st182{fill:#663526;} .st183{fill:#633522;} .st184{fill:#714030;} .st185{fill:#6C3B2A;} .st186{fill:#5A382C;} .st187{fill:#684331;} .st188{fill:#563A2A;} .st189{fill:#78462F;} .st190{fill:#7F4A33;} .st191{fill:#7A4232;} .st192{fill:#633324;} .st193{fill:#5C3224;} .st194{fill:#704135;} .st195{fill:#80432F;} .st196{fill:#7A4435;} .st197{fill:#DCA974;} .st198{fill:#F0C195;} .st199{fill:#945D48;} .st200{fill:#E3B281;} .st201{fill:#CE935B;} .st202{fill:#C2824D;} .st203{fill:#D59665;} .st204{fill:#D39165;} .st205{fill:#814835;} .st206{fill:#8F5743;} .st207{fill:#C38567;} .st208{fill:#774F3D;} .st209{fill:#4E271D;} .st210{fill:#3A201E;} .st211{fill:#BA7C58;} .st212{fill:#DA8A62;} .st213{fill:#BD7456;} .st214{fill:#944630;} .st215{fill:#C26E44;} .st216{fill:#944E3E;} .st217{fill:#F7C496;} .st218{fill:#EDBB87;} .st219{fill:#E2AC78;} .st220{fill:#E8B581;} .st221{fill:#9E745A;} .st222{fill:#6C4537;} .st223{fill:#E2B487;} .st224{fill:#D7A56F;} .st225{fill:#E3AF76;} .st226{fill:#C38F5C;} .st227{fill:#724431;} .st228{fill:#74442E;} .st229{fill:#AD6D4A;} .st230{fill:#714230;} .st231{fill:#77432D;} .st232{fill:#62392C;} .st233{fill:#5D3529;} .st234{fill:#7E412D;} .st235{fill:#874634;} .st236{fill:#C1573E;} .st237{fill:#DEB384;} .st238{fill:#5A2F27;} .st239{fill:#6A3024;} .st240{fill:#74382A;} .st241{fill:#EDC294;} .st242{fill:#95624E;} .st243{fill:#92624E;} .st244{fill:#B68158;} .st245{fill:#995C47;} .st246{fill:#604D44;} .st247{fill:#56453D;} .st248{fill:#614238;} .st249{fill:#634639;} .st250{fill:#724C3A;} .st251{fill:#A47054;} .st252{fill:#E1AE7B;} .st253{fill:#C59160;} .st254{fill:#F2C38A;} .st255{fill:#FFD49D;} .st256{fill:#E0AF76;} .st257{fill:#C58F60;} .st258{fill:#764B34;} .st259{fill:#CB9A65;} .st260{fill:#E9BA7C;} .st261{fill:#DAAB73;} .st262{fill:#EFC08A;} .st263{fill:#CA945E;} .st264{fill:#69391A;} .st265{fill:#6F452F;} .st266{fill:#6C412C;} .st267{fill:#291F13;} .st268{fill:#312116;} .st269{fill:#3A281D;} .st270{fill:#80553C;} .st271{fill:#704A38;} .st272{fill:#35281C;} .st273{fill:#D5A26C;} .st274{fill:#DFAC79;} .st275{fill:#9E6948;} .st276{fill:#BC8C59;} .st277{fill:#5F3C2A;} .st278{fill:#472F1E;} .st279{fill:#3D3125;} .st280{fill:#262A2B;} .st281{fill:#080B0C;} .st282{fill:#2D302E;} .st283{fill:#3A383A;} .st284{fill:#262627;} .st285{fill:#0E1011;} .st286{fill:#070808;} .st287{fill:#1D1E1E;} .st288{fill:#2E2C29;} .st289{fill:#44403E;} .st290{fill:#050B0C;} .st291{fill:#202321;} .st292{fill:#343030;} .st293{fill:#242221;} .st294{fill:#201F1D;} .st295{fill:#1E1E1E;} .st296{fill:#0F1113;} .st297{fill:#111516;} .st298{fill:#101111;} .st299{fill:#493435;} .st300{fill:#1E1A1C;} .st301{fill:#302224;} .st302{fill:#111312;} .st303{fill:#060B0B;} .st304{fill:#090D10;} .st305{fill:#060C0E;} .st306{fill:#030C0D;} .st307{fill:#0A172B;} .st308{fill:#0E1C30;} .st309{fill:#0E1E35;} .st310{fill:#0A243A;} .st311{fill:#08324D;} .st312{fill:#0E3049;} .st313{fill:#0A1F39;} .st314{fill:#0A3750;} .st315{fill:#0F223C;} .st316{fill:#11253A;} .st317{fill:#553D4A;} .st318{fill:#31181A;} .st319{fill:#583843;} .st320{fill:#0D2C40;} .st321{fill:#0C1F39;} .st322{fill:#0D1E36;} .st323{fill:#091F3C;} .st324{fill:#0E1215;} .st325{fill:#191516;} .st326{fill:#231E26;} .st327{fill:#291C1C;} .st328{fill:#0C0D0F;} .st329{fill:#131112;} .st330{fill:#111111;} .st331{fill:#0B0C0D;} .st332{fill:#0B1C2E;} .st333{fill:#08192E;} .st334{fill:#0F1112;} .st335{fill:#0F1012;} .st336{fill:#151A1D;} .st337{fill:#081B37;} .st338{fill:#061B37;} .st339{fill:#022C59;} .st340{fill:#022551;} .st341{fill:#081D41;} .st342{fill:#051E40;} .st343{fill:#062040;} .st344{fill:#201B24;} .st345{fill:#0A1E39;} .st346{fill:#061C37;} .st347{fill:#0C1F3B;} .st348{fill:#4F353C;} .st349{fill:#6991A7;} .st350{fill:#454B58;} .st351{fill:#26767C;} .st352{fill:#403A43;} .st353{fill:#062951;} .st354{fill:#032245;} .st355{fill:#091D37;} .st356{fill:#121C32;} .st357{fill:#101D34;} .st358{fill:#0E2540;} .st359{fill:#1A4C59;} .st360{fill:#562E2E;} .st361{fill:#4B2A2A;} .st362{fill:#351C1E;} .st363{fill:#66342F;} .st364{fill:#164256;} .st365{fill:#11274A;} .st366{fill:#10223C;} .st367{fill:#183454;} .st368{fill:#CF8169;} .st369{fill:#A75746;} .st370{fill:#9C5041;} .st371{fill:#0F2D49;} .st372{fill:#071B3A;} .st373{fill:#0A284F;} .st374{fill:#0A2448;} .st375{fill:#042B53;} .st376{fill:#06264D;} .st377{fill:#59262B;} .st378{fill:#5A2A30;} .st379{fill:#301215;} .st380{fill:#3A1C1F;} .st381{fill:#2C191C;} .st382{fill:#101010;} .st383{fill:#1D1819;} .st384{fill:#131415;} .st385{fill:#0C0E10;} .st386{fill:#051C37;} .st387{fill:#07254F;} .st388{fill:#07274C;} .st389{fill:#0C305B;} .st390{fill:#60A6BE;} .st391{fill:#6F9AB3;} .st392{fill:#091B37;} .st393{fill:#0A1E3A;} .st394{fill:#0A1C36;} .st395{fill:#051D41;} .st396{fill:#082443;} .st397{fill:#051E3D;} .st398{fill:#041C3A;} .st399{fill:#061C38;} .st400{fill:#071B36;} .st401{fill:#081D3E;} .st402{fill:#1A7384;} .st403{fill:#0C3768;} .st404{fill:#082244;} .st405{fill:#132644;} .st406{fill:#091B33;} .st407{fill:#0E1A2B;} .st408{fill:#081E3A;}</style><g id="hair"><path class="st0" d="M943 629.9l-28.2 42.5 24.9 47.5z"/><path class="st1" d="M946.1 498.3l-71.9 24.1 26 57.5z"/><path class="st2" d="M866.5 407.9l7.7 114.5 71.9-24.1z"/><path class="st3" d="M949 392.9l-82.5 15 79.6 90.4z"/><path class="st4" d="M1005.4 276.3L866.5 407.9l82.5-15z"/><path class="st5" d="M884.5 318.9l-18 89 138.9-131.6z"/><path class="st6" d="M907.6 271.9l-23.1 47 120.9-42.6z"/><path class="st7" d="M1061 102.9l-88 85 32.4 88.4z"/><path class="st8" d="M1107.3 172.1l-46.3-69.2-55.6 173.4z"/><path class="st9" d="M1110.5 66.7l-49.5 36.2 46.3 69.2z"/><path class="st10" d="M1234 158l-123.5-91.3-3.2 105.4z"/><path class="st11" d="M1216 29.9l-105.5 36.8L1234 158z"/><path class="st12" d="M1284.5 6.9l-68.5 23 18 128.1z"/><path class="st13" d="M1369 0l-84.5 6.9L1234 158z"/><path class="st14" d="M1301 140.1L1369 0l-135 158z"/><path class="st15" d="M1414.5 151.4L1369 0l-68 140.1z"/><path class="st16" d="M1495 34.4L1369 0l45.5 151.4z"/><path class="st17" d="M1526 181.9l-31-147.5-80.5 117z"/><path class="st18" d="M1598 87.9l-103-53.5 31 147.5z"/><path class="st19" d="M1677 168.4l-79-80.5 43 148.5z"/><path class="st20" d="M1688.3 287.6L1677 168.4l-36 68z"/><path class="st21" d="M1732.5 270.9L1677 168.4l11.3 119.2z"/><path class="st22" d="M1769.5 376.4l-37-105.5-.3 130.8z"/><path class="st23" d="M1732.2 401.7l.3-130.8-44.2 16.7z"/><path class="st24" d="M1743.5 452.9l26-76.5-37.3 25.3zM1782.5 455.9l-13-79.5-26 76.5z"/><path class="st25" d="M1768.4 534.3l14.1-78.4-42.7 70z"/><path class="st26" d="M1739.8 525.9l42.7-70-39-3z"/><path class="st27" d="M939.7 592.8l-24.9 79.6 28.2-42.5z"/><path class="st28" d="M874.2 522.4l25.9 142.2.1-84.7z"/><path class="st29" d="M1641 236.4l-43-148.5-72 94z"/><path class="st30" d="M973 187.9l-65.4 84 97.8 4.4z"/></g><g id="forehead"><path class="st31" d="M1675.3 515.9l64.5 10 3.7-73z"/><path class="st32" d="M1743.5 452.9l-11.3-51.2-56.9 114.2z"/><path class="st33" d="M1675.3 516.4l56.9-114.2L1586 516.4z"/><path class="st34" d="M1586 515.9l-61.5-84-37.5 99.8z"/><path class="st35" d="M1732.2 401.7l-43.9-114.1-163.8 144.3z"/><path class="st36" d="M1524.5 431.9l163.8-144.3-175.8 19.3z"/><path class="st37" d="M1512.5 306.9l175.8-19.3-151.8-55.7z"/><path class="st38" d="M1688.3 287.6l-47.3-51.2-104.5-4.5z"/><path class="st39" d="M1281.8 500.1l89.7 22.3 14.7-49.7z"/><path class="st40" d="M1386.2 472.7l-14.7 49.7 115.5 9.3z"/><path class="st41" d="M1448.6 390.7l-62.4 82 100.8 59z"/><path class="st42" d="M1448.6 390.7l38.4 141 37.5-99.8-75.9-41.2z"/><path class="st43" d="M1524.5 431.9l-12-125-63.9 83.8z"/><path class="st44" d="M1386.2 472.7l62.4-82 63.9-83.8-119.7 16z"/><path class="st45" d="M1512.5 306.9l24-75-90-12.4z"/><path class="st46" d="M1392.8 322.9l119.7-16-66-87.4z"/><path class="st47" d="M1536.5 231.9L1301 140.1l-38 54.3z"/><path class="st48" d="M1446.5 219.5L1263 194.4l129.8 128.5z"/><path class="st49" d="M1392.8 322.9L1263 194.4l123.2 278.3z"/><path class="st50" d="M1386.2 472.7L1263 194.4l18.8 305.7z"/><path class="st51" d="M1263 194.4l-40.2 291.1 59 14.6z"/><path class="st52" d="M1301 140.1l-67 17.9 29 36.4z"/><path class="st53" d="M1234 158l-126.7 14.1 155.7 22.3z"/><path class="st54" d="M1107.3 172.1l-101.9 104.2 217.4 209.2z"/><path class="st55" d="M1263 194.4l-155.7-22.3 115.5 313.4z"/><path class="st56" d="M1222.8 485.5l-217.4-209.2 88.4 200.1z"/><path class="st57" d="M949 392.9l-2.9 105.4 59.3-222z"/><path class="st58" d="M1005.4 276.3l-59.3 222 147.7-21.9z"/><path class="st59" d="M1526 181.9l-111.5-30.5 122 80.5z"/><path class="st60" d="M1586 515.9l146.2-114.2-207.7 30.2z"/><path class="st61" d="M1641 236.4l-115-54.5 10.5 50z"/><path class="st62" d="M1414.5 151.4L1301 140.1l235.5 91.8z"/></g><g id="nose"><path class="st63" d="M1473.5 906.1l37.7-10.2-25-12.8z"/><path class="st64" d="M1456.5 886.4l-18.7 22.1 35.7-2.4-16.6-19.3z"/><path class="st65" d="M1456.5 886.4l-85 11.5 66.3 10.6z"/><path class="st66" d="M1264.5 884.4l20.7 23.5 16.3-26.8z"/><path class="st67" d="M1301.5 881.6l-16.3 26.8h12.8z"/><path class="st68" d="M1298 908.4h27l-23.5-26.8z"/><path class="st69" d="M1301.5 881.1l23.5 26.8 46.5-10z"/><path class="st70" d="M1371.5 897.9l85-11.5 29.7-3.3-59.7-15.7z"/><path class="st71" d="M1511.2 895.9l13.8-21.5-38.8 8.7z"/><path class="st72" d="M1430.4 765.1l94.6 109.3-7.5-38z"/><path class="st73" d="M1517.5 836.4l-35-70.5-52.1-.8z"/><path class="st74" d="M1430.4 765.1l52.1.8-28.5-83z"/><path class="st75" d="M1486.2 883.1l38.8-8.7-94.6-109.3z"/><path class="st76" d="M1486.2 883.1l-55.8-118-3.9 102.3z"/><path class="st77" d="M1351.8 864.9l19.7 33 55-30.5z"/><path class="st78" d="M1351.8 864.9l-50.3 16.2 70 16.8z"/><path class="st79" d="M1426.5 867.4l3.9-102.3-78.6 99.8z"/><path class="st80" d="M1351.8 864.9l78.6-99.8-114.2 29.3z"/><path class="st81" d="M1316.2 794.4l-14.7 86.7 50.3-16.2z"/><path class="st82" d="M1264.4 850.4l37.1 30.7 14.7-86.7z"/><path class="st83" d="M1264.4 850.4l.1 34 37-3.3z"/><path class="st84" d="M1316.2 794.4l114.2-29.3L1364 684z"/><path class="st85" d="M1364 684l66.4 81.1-20.9-97.9z"/><path class="st86" d="M1409.5 667.2l20.9 97.9 23.6-82.2z"/><path class="st87" d="M1307 756.9l-42.6 93.5 51.8-56z"/><path class="st88" d="M1364 684l-57 72.9 9.2 37.5z"/><path class="st89" d="M1383.5 612.9L1364 684l45.5-16.8z"/><path class="st90" d="M1414 594.1l-30.5 18.8 26 54.3z"/><path class="st91" d="M1439.5 607.9l-25.5-13.8-4.5 73.1z"/><path class="st92" d="M1454 682.9l-14.5-75-30 59.3z"/><path class="st93" d="M1473.5 906.1l12.7-23-29.7 3.3z"/></g><g id="ears"><path class="st94" d="M935 933.7l19.2-13.3-28.2-8.1z"/><path class="st95" d="M905 938.6l30-4.9-9-21.4z"/><path class="st96" d="M883 928.4l22 10.2 21-26.3z"/><path class="st97" d="M897.5 881.9L883 928.4l43-16.1z"/><path class="st98" d="M858.5 853.9l24.5 74.5 14.5-46.5z"/><path class="st99" d="M883 838.4l-24.5 15.5 39 28z"/><path class="st100" d="M926 912.3l6-52.2-34.5 21.8z"/><path class="st101" d="M926 912.3l28.2 8.1-22.2-60.3z"/><path class="st102" d="M897.5 881.9l34.5-21.8-49-21.7z"/><path class="st103" d="M858 739.6l-17.5-8.2L858 853.9v-58z"/><path class="st104" d="M858 739.6v56.3l19.5-53.5z"/><path class="st105" d="M878 742.4l-19.5 53.5 33.5-22.8z"/><path class="st106" d="M858.5 795.9l24.5 42.5 9-65.3z"/><path class="st107" d="M858 795.9v58l24.5-15.5z"/><path class="st108" d="M883 838.4l49 21.7-21.5-41.2z"/><path class="st109" d="M932 860.1l9.5-115.4-12.3 31.2z"/><path class="st110" d="M932 860.1l22.2 60.3-12.7-175.7z"/><path class="st111" d="M929.2 775.9l12.3-31.2-24.5 15.2z"/><path class="st112" d="M929.2 775.9l-12.2-16-25 13.2z"/><path class="st113" d="M892 773.1l-9 65.3 27.5-19.5z"/><path class="st114" d="M910.5 818.9l18.7-43-37.2-2.8z"/><path class="st115" d="M892 773.1l25-13.2-39-17.5z"/><path class="st116" d="M917 759.9l-32.9-63.6-6.1 46.1z"/><path class="st117" d="M917 759.9l24.5-15.2-57.4-48.4z"/><path class="st118" d="M941.5 744.7l-1.8-24.8-55.6-23.6z"/><path class="st119" d="M939.7 719.9l-24.9-47.5-30.7 23.9z"/><path class="st120" d="M914.8 672.4L878 654.9l6.1 41.4z"/><path class="st121" d="M884.1 696.3l-6.1-41.4-12.5 30.8z"/><path class="st122" d="M878 654.9l-23 9 10.5 21.8z"/><path class="st123" d="M855 663.9l-11.6 30 22.1-8.2z"/><path class="st124" d="M843.4 693.9l-2.4 37.5 17.5 8.2z"/><path class="st125" d="M865.5 685.7l-22.1 8.2 15.1 45.7z"/><path class="st126" d="M884.1 696.3l-18.6-10.6 12.5 56.7z"/><path class="st127" d="M865.5 685.7l-7 53.9 19.5 2.8z"/><path class="st128" d="M910.5 818.9l21.5 41.2-2.8-84.2z"/><path class="st129" d="M1706.5 985.9l16-43.4-47.2 37.5z"/><path class="st130" d="M1675.3 980l47.2-37.5-15-17.1z"/><path class="st131" d="M1690.5 918.6l-15.2 61.4 32.2-54.6z"/><path class="st132" d="M1690.5 918.6l17 6.8 8.5-26.5-25.5 19.7z"/><path class="st133" d="M1722.5 942.5l5-31.4-20 14.3z"/><path class="st134" d="M1707.5 925.4l20-14.3-11.5-12.2z"/><path class="st135" d="M1727 911.1l19-79.2-19 11z"/><path class="st136" d="M1716 898.9l11.5-56-20 7z"/><path class="st137" d="M1715.5 898.9l11.5 12.2v-68.2z"/><path class="st138" d="M1690.5 918.6l25.5-19.7-8.5-49z"/></g><g id="face"><path class="st139" d="M1295 1157.1l-112 67.3 128 85z"/><path class="st140" d="M1240.7 1122.8l-83.1-52.4 25.4 154 112-67.3z"/><path class="st141" d="M954.2 920.4l12 120 191.4 30z"/><path class="st142" d="M1295 1157.1l16 152.3 64-74.5z"/><path class="st143" d="M1311 1309.4h130.8l-66.8-74.5z"/><path class="st144" d="M1375 1234.9l110.9 34.4-88.9-58.9z"/><path class="st145" d="M1485.9 1269.3l-44.9-112.9-44 54z"/><path class="st146" d="M1397 1210.4l44-54-146 .7z"/><path class="st147" d="M1247 1055.4l-89.4 15 83.1 52.4z"/><path class="st148" d="M1240.7 1122.8l54.3 34.3 30.8-52.9z"/><path class="st149" d="M1247 1055.4l-6.3 67.4 85.1-18.6z"/><path class="st150" d="M1206.3 1035.9l-.5-13.3-48.2 47.8 49.1-25.3z"/><path class="st151" d="M1206.3 1036.1l.4 9.3h62.8z"/><path class="st152" d="M1292 1002.9l-65.6 26-20.1 7 63.2 9.2z"/><path class="st153" d="M1269.5 1045.1l-22.5 10.3 78.8 48.8z"/><path class="st154" d="M1269.5 1045.1l56.3 59.1 15.4-57.7z"/><path class="st155" d="M1325.8 1104.2l-30.8 52.9 89-42.7z"/><path class="st156" d="M1295 1157.1l146-.7-57-42z"/><path class="st157" d="M1325.8 1104.2l58.2 10.2 41.4-66z"/><path class="st158" d="M1341.2 1046.5l-15.4 57.7 99.6-55.8z"/><path class="st159" d="M1384 1114.4l80.8-18-39.4-48z"/><path class="st160" d="M1384 1114.4l57 42 23.8-60z"/><path class="st161" d="M1485.9 1269.3l96.3-82.7-141.2-30.2z"/><path class="st162" d="M1441 1156.4l141.2 30.2-84.7-78.2z"/><path class="st163" d="M1582.2 1186.6l59.8-90.2-88.2-54.8z"/><path class="st164" d="M1497.5 1108.4l84.7 78.2-28.4-145z"/><path class="st165" d="M1441 1156.4l56.5-48-32.7-12z"/><path class="st166" d="M1497.5 1108.4l56.3-66.8-57.8 7.1z"/><path class="st167" d="M1464.8 1096.4l31.2-47.7-70.6-.3z"/><path class="st168" d="M1425.4 1048.4l70.6.3-26.8-53.3z"/><path class="st169" d="M1425.4 1048.4l43.8-53-59.7 7.5z"/><path class="st170" d="M1358.4 995.4l67 53-15.9-45.5z"/><path class="st171" d="M1358.4 995.4l-66.4 7.5 49.2 43.6z"/><path class="st172" d="M1496 1048.7l16.9-42.1-43.7-11.2z"/><path class="st173" d="M1496 1048.7l57.8-7.1-40.9-35z"/><path class="st174" d="M1226.4 1028.9l-20.6-6.3.5 13.3z"/><path class="st175" d="M1226.4 1028.9l-38.9-64 18.3 57.7 19.4 6z"/><path class="st176" d="M1226 938.4l-38.9 26.5 38.9 64v-.8z"/><path class="st177" d="M1226 1028.9l30.1-59.5-30.1-31v89.7z"/><path class="st178" d="M1256.5 969.4l35.5 33.5 9.5-62z"/><path class="st179" d="M1301.5 940.9l-9.5 62 66.4-7.5z"/><path class="st180" d="M1325 907.9l-23.5 33 56.9 54.5z"/><path class="st181" d="M1378.7 925l-53.7-17.1 33.4 87.5z"/><path class="st182" d="M1378.7 925l-20.3 70.4 51.1 7.5z"/><path class="st183" d="M1420 925.4l-41.3-.4 30.8 77.9z"/><path class="st184" d="M1409.5 1002.9l59.7-7.5-49.2-70z"/><path class="st185" d="M1420 925.4l49.2 70-31.4-86.9z"/><path class="st186" d="M1512.9 1006.6l-1.7-110.7-42 99.5z"/><path class="st187" d="M1512.9 1006.6l40.9 35-42.6-145.7z"/><path class="st188" d="M1553.8 1041.6l40.2-61.2-82.8-84.5z"/><path class="st189" d="M1642 1096.4l33.3-116.4-121.5 61.6z"/><path class="st190" d="M1594 980.4l81.3-.4-18.4-125.4z"/><path class="st191" d="M1594 980.4l62.9-125.8-101.9-22.7z"/><path class="st192" d="M1525 874.4l69 106-39-148.5z"/><path class="st193" d="M1511.2 895.9l82.8 84.5-69-106z"/><path class="st194" d="M1437.8 908.5l-59.1 16.5 41.3.4z"/><path class="st195" d="M1371.5 897.9l-46.5 10 53.7 17.1z"/><path class="st196" d="M1325 908.4h-39.8l16.3 33z"/><path class="st197" d="M1187.5 964.9l-16.7-8.8-14.1 46.6v.2z"/><path class="st198" d="M1226.4 938.4l-20.9-27.2-18 53.7z"/><path class="st199" d="M1285.2 907.9l-79.7 3.3 20.9 27.2z"/><path class="st200" d="M1205.5 911.2l-34.8 45.1 16.8 8.6z"/><path class="st201" d="M1205.8 1022.6l-49.1-19.7-202.5-82.5 203.4 150z"/><path class="st202" d="M1170.7 956.3l-216.6-35.8 202.6 82.4z"/><path class="st203" d="M1205.5 911.2l-251.3 9.2 216.5 35.9z"/><path class="st204" d="M1241.4 864.9l-63.2 12.4-224 43.1 251.3-9.2z"/><path class="st205" d="M1241.4 864.9l-35.9 46.3 38-18.1z"/><path class="st206" d="M1243.5 893.1l-38 18.1 79.7-3.3z"/><path class="st207" d="M1264.5 884.4l-23.1-19.5 2.1 28.2z"/><path class="st208" d="M1707.5 849.9l-50.6 4.7 18.4 125.4 15.2-61.4z"/><path class="st209" d="M1525 874.4l30-42.5-37.5 4.5z"/><path class="st210" d="M1517.5 836.4l37.5-4.5-72.5-66z"/><path class="st211" d="M1307 756.9l-48.4 76.1 5.8 17.4z"/><path class="st212" d="M1255.8 792.4l2.8 40.6 48.4-76.1z"/><path class="st213" d="M1258.6 833l-17.2 31.9 23.1 19.5z"/><path class="st214" d="M1180.3 807.2l61.1 57.7 17.2-31.9z"/><path class="st215" d="M1180.3 807.2l78.3 25.8-2.8-40.6z"/><path class="st216" d="M1180.3 807.2l-79.1-9.9 76.8 79.8.2.2z"/><path class="st217" d="M1101.2 797.3l-147 123.1 224-43.1z"/><path class="st218" d="M1032.5 762.9l-78.3 157.5 147-123.1z"/><path class="st219" d="M1003.5 729.4l-49.3 191 78.3-157.5z"/><path class="st220" d="M939.7 719.9l1.8 24.8 12.7 175.7 49.3-191z"/><path class="st221" d="M939.7 719.9l63.8 9.5-21-94.1z"/><path class="st222" d="M943 629.9l-3.3 90 42.8-84.6z"/><path class="st223" d="M954 564.4l21.7 12.8-9.7-20.8z"/><path class="st224" d="M939.7 592.8l3.3 37.1 32.7-52.7z"/><path class="st225" d="M975.7 577.2L943 629.9l39.5 5.4z"/><path class="st226" d="M1157.6 1070.4l-191.4-30 216.8 184z"/><path class="st227" d="M1206.7 1045.1l-49.1 25.3 89.4-15z"/><path class="st228" d="M1441.8 1309.4l44.1-40.1-110.9-34.4z"/><path class="st229" d="M1397 1210.4l-102-53.3 80 77.8z"/><path class="st230" d="M1464.8 1096.4l32.7 12-1.5-59.7z"/><path class="st231" d="M1553.8 1041.6l121.5-61.6-81.3.4z"/><path class="st232" d="M1469.2 995.4l42-99.5-37.7 10.2z"/><path class="st233" d="M1469.2 995.4l4.3-89.3-35.7 2.4z"/><path class="st234" d="M1371.5 897.9l7.2 27.1 59.1-16.5z"/><path class="st235" d="M1178.2 877.3l63.2-12.4-61.1-57.7z"/><path class="st236" d="M1258.6 833l5.9 51.4-.1-34z"/><path class="st237" d="M954 564.4l-14.3 28.4 36-15.6z"/><path class="st238" d="M1206.7 1045.4l40.3 10.2 22.5-10.2z"/><path class="st239" d="M1341.2 1046.5l84.2 1.9-67-53z"/><path class="st240" d="M1292 1002.9l-22.5 42.2 71.7 1.4z"/><path class="st241" d="M1226.4 1028.9l65.6-26-35.5-33.5z"/><path class="st242" d="M1301.5 940.9l-16.3-33-28.7 61.5z"/><path class="st243" d="M1285.2 907.9l-58.8 30.5 30.1 31z"/><path class="st244" d="M1156.7 1002.9l49.1 19.7-18.3-57.7z"/><path class="st245" d="M1243.5 893.1l41.7 14.8-20.7-23.5z"/></g><g id="neck"><path class="st246" d="M1632.9 1524.4l-72.4-48 123.4 240.1z"/><path class="st247" d="M1683.9 1716.5l-123.4-240.1 74 333.8z"/><path class="st248" d="M1634.5 1810.2l-74-333.8-10.5 401z"/><path class="st249" d="M1550 1877.4l10.5-401-125.9 401.1z"/><path class="st250" d="M1434.4 1877.4l.2.1 125.9-401.1-265.7 306.4z"/><path class="st251" d="M1295 1782.9l85.2 94.6h54.4z"/><path class="st252" d="M1020.3 1711.6l143 99.9-29.8-129.5z"/><path class="st253" d="M1133.5 1682l-167.3-94.4 54.1 124z"/><path class="st254" d="M966.2 1587.6l-135.4-79.2 92 110.2z"/><path class="st255" d="M920.6 1433.3l-89.8 75.1 135.4 79.2z"/><path class="st256" d="M1133.5 1682l-212.9-248.7 45.6 154.3z"/><path class="st257" d="M1163.3 1811.5l104.4 41.8 27.1-70.5z"/><path class="st258" d="M1294.8 1782.8l265.7-306.4-478.1 90z"/><path class="st259" d="M1294.8 1782.8l-374.2-349.5 212.9 248.7z"/><path class="st260" d="M965.5 1318.4l-44.9 114.9 161.8 133.1z"/><path class="st261" d="M1269.5 1451.2l-304-132.8 116.9 248z"/><path class="st262" d="M966.2 1202.4l-.7 116 304 132.8z"/><path class="st263" d="M1137.6 1272.8l-.3-.3L966 1040.4v162l300.9 246z"/><path class="st264" d="M1183 1224.4l-216.8-184 171.2 232.1z"/><path class="st265" d="M1137.4 1272.5l.2.3 131.9 178.4 17.5-102.8z"/><path class="st266" d="M1287 1348.4l-17.5 102.8 183.5-112.8z"/><path class="st267" d="M1453 1338.4l-11.2-29-154.8 39z"/><path class="st268" d="M1287 1348.4l154.8-39H1311z"/><path class="st269" d="M1311 1309.4l-128-85 104 124z"/><path class="st270" d="M1269.5 1451.2l-187.1 115.2 478.1-90-107.5-138z"/><path class="st271" d="M1560.5 1476.4l21.7-289.8-70.2 113.8z"/><path class="st272" d="M1441.8 1309.4l70.2-9 70.2-113.8-96.3 82.7z"/><path class="st273" d="M966.2 1587.6l-43.4 31 97.5 93z"/><path class="st274" d="M1133.5 1682l29.8 129.5 131.5-28.7z"/><path class="st275" d="M1267.7 1853.3l112.3 24.1-85.2-94.6z"/><path class="st276" d="M1082.4 1566.4l-161.8-133.1 374.2 349.5z"/><path class="st277" d="M1453 1338.4l107.5 138-48.5-176z"/><path class="st278" d="M1287 1348.4l-104-124-45.6 48.1z"/><path class="st279" d="M1512 1300.4l-70.2 9 11.2 29z"/></g><g id="shirt"><path class="st280" d="M0 2498l559.6-.5-497.7-240.9z"/><path class="st281" d="M61.9 2256.6l497.7 240.9-362-511.6z"/><path class="st282" d="M197.6 1985.9l362 511.6-314-600.1z"/><path class="st283" d="M245.6 1897.4l314 600.1-192-679.9z"/><path class="st284" d="M451.8 1748.9l-84.2 68.7 38.1 134.9z"/><path class="st285" d="M667.2 2304.2l-261.5-351.7 153.9 545 57-102.5z"/><path class="st286" d="M559.6 2497.5l251.7.4-144.1-193.7z"/><path class="st287" d="M405.7 1952.5l405.6 545.4-359.5-749z"/><path class="st288" d="M451.8 1748.9l359.5 749L706.9 1967z"/><path class="st289" d="M741.3 1573.4l-289.5 175.5L706.9 1967z"/><path class="st290" d="M811.3 2497.9h305.5L706.9 1967z"/><path class="st291" d="M741.3 1573.4L706.9 1967l409.9 530.9-272-669.5z"/><path class="st292" d="M830.8 1508.4l-89.5 65 103.5 255z"/><path class="st293" d="M844.8 1828.4l78-209.8-92-110.2 14 320z"/><path class="st294" d="M1020.3 1711.6l-97.5-93-78 209.8z"/><path class="st295" d="M844.8 1828.4l318.5-16.9-143-99.9z"/><path class="st296" d="M844.8 1828.4l272 669.5 46.5-686.4z"/><path class="st297" d="M1163.3 1811.5l-46.5 686.4 150.9-644.6z"/><path class="st298" d="M1380 1877.4l-112.3-24.1-150.9 644.6 35-82.6z"/><path class="st299" d="M1116.8 2497.9h93.9l-58.9-82.6z"/><path class="st300" d="M1948 2498v-211.6l-737.1 211.5z"/><path class="st301" d="M1210.7 2497.9l737.1-211.5-796 128.9z"/><path class="st302" d="M1151.8 2415.3l796-128.9-567.8-409z"/><path class="st303" d="M1434.6 1877.5l-54.6-.1 567.8 409-397.8-409z"/><path class="st290" d="M1550 1877.4l397.8 409-313.3-476.2z"/><path class="st304" d="M1634.5 1810.2l313.3 476.2-263.9-569.9z"/><path class="st305" d="M1948 2286.4v-430.7l-263.8-139.2z"/><path class="st306" d="M1683.9 1716.5l263.9 139.2-314.9-331.3z"/><path class="st305" d="M1633.2 1524.4l314.8 331.3v-240.3z"/></g><g id="glasses"><path class="st208" d="M1690.5 918.6z"/><path class="st307" d="M1482.5 765.9l72.5 66-51.2-76.2z"/><path class="st308" d="M1503.8 755.7l51.2 76.2 7-22z"/><path class="st309" d="M1555 832.4l101.9 22.7-4.9-22.7z"/><path class="st310" d="M1656.9 854.6l50.6-4.7-55.5-18z"/><path class="st311" d="M1652 831.9l55.5 18-7.3-13.5z"/><path class="st312" d="M1727.5 842.9l19-11 4.7-27.9z"/><path class="st313" d="M1727.5 842.9l23.7-38.9-43.7 45.9z"/><path class="st314" d="M1707.5 849.9l43.7-45.9-51 32.4z"/><path class="st315" d="M1746.5 831.9l44.5-42.5-39.8 14.6z"/><path class="st316" d="M1751.2 804l39.8-14.6-5-32.5z"/><path class="st317" d="M1751.2 804l34.8-47.1-27.2-36.4z"/><path class="st318" d="M1700.2 836.4l51-32.4 7.6-83.5z"/><path class="st319" d="M1786 756.9l24.5-61.5-51.7 25.1z"/><path class="st320" d="M1786 756.9l5 32.5 19.5-94z"/><path class="st321" d="M1791 789.4l39-75-19.5-19z"/><path class="st322" d="M1830 714.4l21.5-72.5-41 53.5z"/><path class="st323" d="M1810.5 695.4l41-53.5-33.5-29z"/><path class="st324" d="M1810.5 695.4l7.5-82.5-59.2 107.6z"/><path class="st325" d="M1758.8 720.5l-19-166.4-39.6 282.3z"/><path class="st326" d="M1818 612.9l-78.2-58.8 19 166.4z"/><path class="st327" d="M1700.2 836.4l39.6-282.3-87.8 277.8z"/><path class="st328" d="M1585.1 539.9zM1585.6 542.1l66.4 289.8 87.8-277.8-154.7-14.2z"/><path class="st329" d="M1585.1 539.9zM1652 831.9l-66.9-292-23.1 270z"/><path class="st330" d="M1585.1 539.9l-81.3 215.8 58.2 54.2z"/><path class="st331" d="M1503.8 755.7l81.3-215.8-105.5 145.9z"/><path class="st332" d="M1503.8 755.7l-24.2-69.9 2.9 80.1z"/><path class="st333" d="M1482.5 765.9l-2.9-80.1-25.6-2.9z"/><path class="st334" d="M1479.6 685.8l105.5-145.9-107.6 69.5z"/><path class="st335" d="M1477.5 609.4l107.6-69.5-98.1 35.5z"/><path class="st336" d="M1487 575.4l98.1-35.5-72.6 13z"/><path class="st337" d="M1512.5 552.9l72.6-13-98.1-8.2z"/><path class="st338" d="M1512.5 552.9l-25.5-21.2v43.7z"/><path class="st339" d="M1585.1 539.9l.9-24-99 15.8z"/><path class="st340" d="M1585.1 540.4v-1 1l.7-.2 89.5-23.8H1586z"/><path class="st341" d="M1585.1 539.9zM1585.1 539.9l154.7 14.2-64.5-38.2-89.5 23.8z"/><path class="st342" d="M1740 554.1v-28.2l-64.4-10z"/><path class="st343" d="M1888.2 569.4L1740 525.9v28.2z"/><path class="st344" d="M1813.9 586.9l-74.1-32.8 78.2 58.8z"/><path class="st345" d="M1851.5 641.9l29-19.5-62.5-9.5z"/><path class="st346" d="M1818 612.9l62.5 9.5-66.6-35.5z"/><path class="st347" d="M1880.5 622.4l7.5-53-74.1 17.5z"/><path class="st348" d="M900.1 664.6l14.7 7.8 24.9-79.6z"/><path class="st349" d="M900.2 579.9l-.1 84.7 39.6-109.9z"/><path class="st350" d="M940 554.7l-39.6 109.9 39.6-71.8z"/><path class="st351" d="M954 547.6v16.8l12-8z"/><path class="st352" d="M940 554.7v38.1l14.3-28.4z"/><path class="st353" d="M982.5 635.3l26.5-9.4-33.3-48.7z"/><path class="st354" d="M982.5 635.3l21 94.1 5.5-103.5z"/><path class="st355" d="M1009 625.9l-5.5 103.5 23.7-12.5z"/><path class="st356" d="M1027.2 716.9l-23.7 12.5 43.8 21.9z"/><path class="st357" d="M1003.5 729.4l29 33.5 14.8-11.6z"/><path class="st358" d="M1032.5 762.9l68.7 34.4-53.9-46z"/><path class="st359" d="M1047.3 751.3l53.9 46-.7-15.9z"/><path class="st360" d="M1047.3 751.3l53.2 30.1-2-53.1z"/><path class="st361" d="M1027.2 716.9l20.1 34.4 51.2-23z"/><path class="st362" d="M1009 625.9l18.2 91 71.3 11.4z"/><path class="st363" d="M1100.5 781.4l76.5 7.7-78.5-60.8z"/><path class="st364" d="M1100.5 781.4l.7 15.9 75.8-8.2z"/><path class="st365" d="M1177 789.1l-75.8 8.2 79.1 9.9z"/><path class="st366" d="M1177 789.1l3.3 18.1 75.5-14.8z"/><path class="st367" d="M1241.4 778.4l-64.4 10.7 78.8 3.3z"/><path class="st368" d="M1217 742.4l-40 46.7 64.4-10.7z"/><path class="st369" d="M1098.5 728.3l78.5 60.8 40-46.7z"/><path class="st370" d="M1217 742.4l24.4 36 52.9-47.1z"/><path class="st371" d="M1241.4 778.4l14.4 14 38.5-61.1z"/><path class="st372" d="M1255.8 792.4l51.2-35.5-12.7-25.6z"/><path class="st337" d="M1294.3 731.3l12.7 25.6 57-72.9z"/><path class="st373" d="M1037.8 512.2L954 547.6l12 8.8z"/><path class="st374" d="M1017.5 553.9l20.3-41.7-71.8 44.2z"/><path class="st375" d="M966 556.4l9.7 20.8 41.8-23.3z"/><path class="st376" d="M975.7 577.2l33.3 48.7 8.5-72z"/><path class="st377" d="M1017.5 553.9l-8.5 72 109.8-123.4z"/><path class="st378" d="M1118.8 502.5l-81 9.7-20.3 41.7z"/><path class="st379" d="M1118.8 502.5L1009 625.9l89.5 102.4z"/><path class="st380" d="M1098.5 728.3l118.5 14.1-98.2-239.9z"/><path class="st381" d="M1118.8 502.5l98.2 239.9-2.5-236z"/><path class="st382" d="M1214.5 506.4l2.5 236 77.3-11.1z"/><path class="st383" d="M1274 519.4l-59.5-13 79.8 224.9z"/><path class="st382" d="M1333.3 668.5L1274 519.4l20.3 211.9z"/><path class="st384" d="M1333.5 546.4l-59.5-27 59.3 149.1z"/><path class="st385" d="M1333.5 546.4l-.2 122.1 23.2-78.6z"/><path class="st386" d="M1333.3 668.5L1364 684l-7.5-94.1z"/><path class="st355" d="M1214.5 506.4l8.3-20.9-104 17z"/><path class="st387" d="M1222.8 485.5l-129-9.1 25 26.1z"/><path class="st388" d="M1093.8 476.4l-56 35.8 81-9.7z"/><path class="st389" d="M1093.8 476.4l-147.7 21.9 91.7 13.9z"/><path class="st390" d="M946.1 498.3l-6.4 56.4 14.3-7.1z"/><path class="st391" d="M900.2 579.9l39.5-25.2 6.4-56.4z"/><path class="st392" d="M1454 682.9l25.6 2.9-40.1-77.9z"/><path class="st393" d="M1477.5 609.4l9.5-34-47.5 32.5z"/><path class="st394" d="M1487 575.4v-43.7l-47.5 76.2z"/><path class="st395" d="M1487 531.7l-115.5-9.3 42.5 71.7z"/><path class="st396" d="M1414 594.1l-42.5-71.7 12 90.5z"/><path class="st397" d="M1383.5 612.9l-12-90.5-15 67.5z"/><path class="st398" d="M1356.5 589.9l7.5 94.1 19.5-71.1z"/><path class="st399" d="M1356.5 589.9l15-67.5-38 24z"/><path class="st400" d="M1371.5 522.4l-97.5-3 59.5 27z"/><path class="st401" d="M1371.5 522.4l-148.7-36.9 51.2 33.9z"/><path class="st402" d="M954 547.6l-14.3 7.1 14.3 9.7z"/><path class="st403" d="M1037.8 512.2l-91.7-13.9 7.9 49.3z"/><path class="st404" d="M1274 519.4l-51.2-33.9-8.3 20.9z"/><path class="st405" d="M1294.3 731.3L1364 684l-30.7-15.5z"/><path class="st406" d="M1439.5 607.9l47.5-76.2-73 62.4z"/><path class="st392" d="M1479.6 685.8l-2.1-76.4-38-1.5z"/><path class="st407" d="M1555 832.4h97l-90-22z"/><path class="st408" d="M1813.9 586.9l74.1-17.5-148.2-15.3z"/></g></svg>